<svg width="40" height="39" viewBox="0 0 40 39" fill="none" xmlns="http://www.w3.org/2000/svg">
<path d="M19.7917 32.5C19.9028 32.5 20.0139 32.4729 20.125 32.4188C20.2361 32.3646 20.3195 32.3104 20.375 32.2563L34.0417 18.9312C34.375 18.6062 34.6184 18.2406 34.7717 17.8344C34.9239 17.4281 35 17.0219 35 16.6156C35 16.1823 34.9239 15.769 34.7717 15.3757C34.6184 14.9836 34.375 14.6385 34.0417 14.3406L26.9584 7.43437C26.6528 7.10937 26.2989 6.87213 25.8967 6.72263C25.4934 6.57421 25.0695 6.5 24.625 6.5C24.2084 6.5 23.7917 6.57421 23.375 6.72263C22.9584 6.87213 22.5834 7.10937 22.25 7.43437L21.7917 7.88125L24.875 10.9281C25.2917 11.3073 25.5972 11.7406 25.7917 12.2281C25.9861 12.7156 26.0834 13.2302 26.0834 13.7719C26.0834 14.9094 25.6878 15.8638 24.8967 16.6351C24.1045 17.4075 23.125 17.7937 21.9584 17.7937C21.4028 17.7937 20.8684 17.699 20.355 17.5094C19.8406 17.3198 19.3889 17.0354 19 16.6562L15.875 13.65L8.58336 20.7594C8.50003 20.8406 8.43725 20.9289 8.39503 21.0243C8.35391 21.1185 8.33336 21.2198 8.33336 21.3281C8.33336 21.5448 8.41669 21.7409 8.58336 21.9164C8.75003 22.093 8.94447 22.1812 9.16669 22.1812C9.2778 22.1812 9.38891 22.1542 9.50002 22.1C9.61114 22.0458 9.69447 21.9917 9.75002 21.9375L15.4167 16.4125L17.75 18.6875L12.125 24.2125C12.0417 24.2937 11.9789 24.3815 11.9367 24.4757C11.8956 24.5711 11.875 24.6729 11.875 24.7812C11.875 24.9979 11.9584 25.1875 12.125 25.35C12.2917 25.5125 12.4861 25.5938 12.7084 25.5938C12.8195 25.5938 12.9306 25.5667 13.0417 25.5125C13.1528 25.4583 13.2361 25.4042 13.2917 25.35L18.9584 19.8656L21.2917 22.1406L15.6667 27.6656C15.5834 27.7198 15.5211 27.801 15.48 27.9094C15.4378 28.0177 15.4167 28.126 15.4167 28.2344C15.4167 28.451 15.5 28.6406 15.6667 28.8031C15.8334 28.9656 16.0278 29.0469 16.25 29.0469C16.3611 29.0469 16.4656 29.0263 16.5634 28.9851C16.66 28.945 16.75 28.8844 16.8334 28.8031L22.5 23.3188L24.8334 25.5938L19.1667 31.1187C19.0834 31.2 19.0211 31.2878 18.98 31.382C18.9378 31.4773 18.9167 31.5792 18.9167 31.6875C18.9167 31.9042 19.0072 32.0938 19.1884 32.2563C19.3684 32.4188 19.5695 32.5 19.7917 32.5ZM19.75 35.75C18.7222 35.75 17.8128 35.418 17.0217 34.7539C16.2295 34.0909 15.7639 33.2583 15.625 32.2563C14.6806 32.1208 13.8889 31.7417 13.25 31.1187C12.6111 30.4958 12.2222 29.724 12.0834 28.8031C11.1389 28.6677 10.3545 28.282 9.73003 27.6461C9.10447 27.0091 8.72225 26.2438 8.58336 25.35C7.5278 25.2146 6.66669 24.7677 6.00002 24.0094C5.33336 23.251 5.00002 22.3573 5.00002 21.3281C5.00002 20.7865 5.10447 20.2648 5.31336 19.7633C5.52114 19.2627 5.81947 18.8229 6.20836 18.4438L15.875 9.05937L21.3334 14.3813C21.3889 14.4625 21.4722 14.5232 21.5834 14.5632C21.6945 14.6044 21.8056 14.625 21.9167 14.625C22.1667 14.625 22.375 14.5508 22.5417 14.4024C22.7084 14.2529 22.7917 14.0562 22.7917 13.8125C22.7917 13.7042 22.7711 13.5958 22.73 13.4875C22.6878 13.3792 22.625 13.2979 22.5417 13.2437L16.5834 7.43437C16.2778 7.10937 15.9234 6.87213 15.52 6.72263C15.1178 6.57421 14.6945 6.5 14.25 6.5C13.8334 6.5 13.4167 6.57421 13 6.72263C12.5834 6.87213 12.2084 7.10937 11.875 7.43437L6.00002 13.2031C5.75002 13.4469 5.54169 13.7312 5.37502 14.0562C5.20836 14.3812 5.09725 14.7063 5.04169 15.0312C4.98614 15.3562 4.98614 15.6878 5.04169 16.0258C5.09725 16.3648 5.20836 16.6833 5.37502 16.9812L2.95836 19.3375C2.48614 18.7146 2.13891 18.0305 1.91669 17.2851C1.69447 16.5409 1.61114 15.7896 1.66669 15.0312C1.72225 14.2729 1.91669 13.5346 2.25002 12.8164C2.58336 12.0992 3.04169 11.4562 3.62502 10.8875L9.50002 5.15937C10.1667 4.53646 10.91 4.0625 11.73 3.7375C12.5489 3.4125 13.3889 3.25 14.25 3.25C15.1111 3.25 15.9511 3.4125 16.77 3.7375C17.59 4.0625 18.3195 4.53646 18.9584 5.15937L19.4167 5.60625L19.875 5.15937C20.5417 4.53646 21.2845 4.0625 22.1034 3.7375C22.9234 3.4125 23.7639 3.25 24.625 3.25C25.4861 3.25 26.3267 3.4125 27.1467 3.7375C27.9656 4.0625 28.6945 4.53646 29.3334 5.15937L36.375 12.025C37.0139 12.6479 37.5 13.3656 37.8334 14.1781C38.1667 14.9906 38.3334 15.8167 38.3334 16.6562C38.3334 17.4958 38.1667 18.3148 37.8334 19.1132C37.5 19.9128 37.0139 20.624 36.375 21.2469L22.7084 34.5312C22.3195 34.9104 21.8678 35.2083 21.3534 35.425C20.84 35.6417 20.3056 35.75 19.75 35.75Z" fill="black"/>
<path d="M19.7917 32.5C19.9028 32.5 20.0139 32.4729 20.125 32.4188C20.2361 32.3646 20.3195 32.3104 20.375 32.2563L34.0417 18.9312C34.375 18.6062 34.6184 18.2406 34.7717 17.8344C34.9239 17.4281 35 17.0219 35 16.6156C35 16.1823 34.9239 15.769 34.7717 15.3757C34.6184 14.9836 34.375 14.6385 34.0417 14.3406L26.9584 7.43437C26.6528 7.10937 26.2989 6.87213 25.8967 6.72263C25.4934 6.57421 25.0695 6.5 24.625 6.5C24.2084 6.5 23.7917 6.57421 23.375 6.72263C22.9584 6.87213 22.5834 7.10937 22.25 7.43437L21.7917 7.88125L24.875 10.9281C25.2917 11.3073 25.5972 11.7406 25.7917 12.2281C25.9861 12.7156 26.0834 13.2302 26.0834 13.7719C26.0834 14.9094 25.6878 15.8638 24.8967 16.6351C24.1045 17.4075 23.125 17.7937 21.9584 17.7937C21.4028 17.7937 20.8684 17.699 20.355 17.5094C19.8406 17.3198 19.3889 17.0354 19 16.6562L15.875 13.65L8.58336 20.7594C8.50003 20.8406 8.43725 20.9289 8.39503 21.0243C8.35391 21.1185 8.33336 21.2198 8.33336 21.3281C8.33336 21.5448 8.41669 21.7409 8.58336 21.9164C8.75003 22.093 8.94447 22.1812 9.16669 22.1812C9.2778 22.1812 9.38891 22.1542 9.50002 22.1C9.61114 22.0458 9.69447 21.9917 9.75002 21.9375L15.4167 16.4125L17.75 18.6875L12.125 24.2125C12.0417 24.2937 11.9789 24.3815 11.9367 24.4757C11.8956 24.5711 11.875 24.6729 11.875 24.7812C11.875 24.9979 11.9584 25.1875 12.125 25.35C12.2917 25.5125 12.4861 25.5938 12.7084 25.5938C12.8195 25.5938 12.9306 25.5667 13.0417 25.5125C13.1528 25.4583 13.2361 25.4042 13.2917 25.35L18.9584 19.8656L21.2917 22.1406L15.6667 27.6656C15.5834 27.7198 15.5211 27.801 15.48 27.9094C15.4378 28.0177 15.4167 28.126 15.4167 28.2344C15.4167 28.451 15.5 28.6406 15.6667 28.8031C15.8334 28.9656 16.0278 29.0469 16.25 29.0469C16.3611 29.0469 16.4656 29.0263 16.5634 28.9851C16.66 28.945 16.75 28.8844 16.8334 28.8031L22.5 23.3188L24.8334 25.5938L19.1667 31.1187C19.0834 31.2 19.0211 31.2878 18.98 31.382C18.9378 31.4773 18.9167 31.5792 18.9167 31.6875C18.9167 31.9042 19.0072 32.0938 19.1884 32.2563C19.3684 32.4188 19.5695 32.5 19.7917 32.5ZM19.75 35.75C18.7222 35.75 17.8128 35.418 17.0217 34.7539C16.2295 34.0909 15.7639 33.2583 15.625 32.2563C14.6806 32.1208 13.8889 31.7417 13.25 31.1187C12.6111 30.4958 12.2222 29.724 12.0834 28.8031C11.1389 28.6677 10.3545 28.282 9.73003 27.6461C9.10447 27.0091 8.72225 26.2438 8.58336 25.35C7.5278 25.2146 6.66669 24.7677 6.00002 24.0094C5.33336 23.251 5.00002 22.3573 5.00002 21.3281C5.00002 20.7865 5.10447 20.2648 5.31336 19.7633C5.52114 19.2627 5.81947 18.8229 6.20836 18.4438L15.875 9.05937L21.3334 14.3813C21.3889 14.4625 21.4722 14.5232 21.5834 14.5632C21.6945 14.6044 21.8056 14.625 21.9167 14.625C22.1667 14.625 22.375 14.5508 22.5417 14.4024C22.7084 14.2529 22.7917 14.0562 22.7917 13.8125C22.7917 13.7042 22.7711 13.5958 22.73 13.4875C22.6878 13.3792 22.625 13.2979 22.5417 13.2437L16.5834 7.43437C16.2778 7.10937 15.9234 6.87213 15.52 6.72263C15.1178 6.57421 14.6945 6.5 14.25 6.5C13.8334 6.5 13.4167 6.57421 13 6.72263C12.5834 6.87213 12.2084 7.10937 11.875 7.43437L6.00002 13.2031C5.75002 13.4469 5.54169 13.7312 5.37502 14.0562C5.20836 14.3812 5.09725 14.7063 5.04169 15.0312C4.98614 15.3562 4.98614 15.6878 5.04169 16.0258C5.09725 16.3648 5.20836 16.6833 5.37502 16.9812L2.95836 19.3375C2.48614 18.7146 2.13891 18.0305 1.91669 17.2851C1.69447 16.5409 1.61114 15.7896 1.66669 15.0312C1.72225 14.2729 1.91669 13.5346 2.25002 12.8164C2.58336 12.0992 3.04169 11.4562 3.62502 10.8875L9.50002 5.15937C10.1667 4.53646 10.91 4.0625 11.73 3.7375C12.5489 3.4125 13.3889 3.25 14.25 3.25C15.1111 3.25 15.9511 3.4125 16.77 3.7375C17.59 4.0625 18.3195 4.53646 18.9584 5.15937L19.4167 5.60625L19.875 5.15937C20.5417 4.53646 21.2845 4.0625 22.1034 3.7375C22.9234 3.4125 23.7639 3.25 24.625 3.25C25.4861 3.25 26.3267 3.4125 27.1467 3.7375C27.9656 4.0625 28.6945 4.53646 29.3334 5.15937L36.375 12.025C37.0139 12.6479 37.5 13.3656 37.8334 14.1781C38.1667 14.9906 38.3334 15.8167 38.3334 16.6562C38.3334 17.4958 38.1667 18.3148 37.8334 19.1132C37.5 19.9128 37.0139 20.624 36.375 21.2469L22.7084 34.5312C22.3195 34.9104 21.8678 35.2083 21.3534 35.425C20.84 35.6417 20.3056 35.75 19.75 35.75Z" fill="black"/>
</svg>
