<svg width="92" height="91" viewBox="0 0 92 91" fill="none" xmlns="http://www.w3.org/2000/svg">
<rect x="0.5" width="91" height="91" rx="45.5" fill="#EADDFF"/>
<path fill-rule="evenodd" clip-rule="evenodd" d="M59.6506 36.4C59.6506 43.9387 53.5392 50.05 46.0006 50.05C38.4619 50.05 32.3506 43.9387 32.3506 36.4C32.3506 28.8613 38.4619 22.75 46.0006 22.75C53.5392 22.75 59.6506 28.8613 59.6506 36.4ZM55.1006 36.4C55.1006 41.4258 51.0263 45.5 46.0006 45.5C40.9748 45.5 36.9006 41.4258 36.9006 36.4C36.9006 31.3742 40.9748 27.3 46.0006 27.3C51.0263 27.3 55.1006 31.3742 55.1006 36.4Z" fill="#4F378A"/>
<path d="M46.0006 56.875C31.2713 56.875 18.7217 65.5846 13.9412 77.7869C15.1057 78.9433 16.3325 80.0371 17.616 81.0629C21.1758 69.86 32.3431 61.425 46.0006 61.425C59.658 61.425 70.8253 69.86 74.3851 81.063C75.6686 80.0372 76.8954 78.9433 78.06 77.7869C73.2795 65.5847 60.7298 56.875 46.0006 56.875Z" fill="#4F378A"/>
</svg>
